<?xml version="1.0" encoding="utf-8"?>
<!-- Svg Vector Icons : http://www.onlinewebfonts.com/icon -->
<!DOCTYPE svg PUBLIC "-//W3C//DTD SVG 1.1//EN" "http://www.w3.org/Graphics/SVG/1.1/DTD/svg11.dtd">
<svg version="1.1" xmlns="http://www.w3.org/2000/svg" xmlns:xlink="http://www.w3.org/1999/xlink" x="0px" y="0px" viewBox="0 0 1000 1000" enable-background="new 0 0 1000 1000" xml:space="preserve">
<metadata> Svg Vector Icons : http://www.onlinewebfonts.com/icon </metadata>
<g><g transform="translate(0.000000,512.000000) scale(0.100000,-0.100000)"><path d="M5779.3,4995c-203.2-65.2-366.2-228.1-440.9-439c-19.2-59.4-49.8-203.2-67.1-322.1c-61.4-448.6-168.7-824.3-320.2-1117.6c-69-134.2-128.4-203.2-483.1-565.5c-559.8-569.4-625-667.1-845.4-1259.5c-232-621.1-360.4-856.9-588.5-1073.5L2909.5,97l-97.8,65.2c-153.4,103.5-220.5,109.3-1079.3,103.5l-772.6-5.7l-105.4-49.9C727.9,148.7,618.6,45.2,551.5-85.1L499.7-181v-1945.8v-1945.8l42.2-90.1c51.8-115,182.1-243.5,302.9-304.8l95.9-46h853.1h853.1l99.7,51.8c55.6,30.7,130.4,84.3,166.8,120.8l67.1,65.2L3197-4295c345.1-28.8,552.1-67.1,1012.2-189.8C5144.7-4730.1,5428.5-4780,5925-4780c239.6,0,456.3,11.5,632.6,34.5c692.1,88.2,1355.4,222.4,1618,329.7c306.7,122.7,554,324,671,542.5c82.4,157.2,92,262.6,42.1,475.4c-21.1,95.8-40.2,185.9-40.2,199.4c0,15.4,57.5,105.4,126.5,199.4c69,95.8,157.2,235.8,195.5,314.4c65.2,134.2,69,153.3,69,316.3c-1.9,134.2-13.4,210.9-53.7,333.6l-51.7,159.1l118.8,157.2c65.2,86.3,145.7,212.8,178.3,281.8c53.7,111.2,59.4,141.9,57.5,297.1c-1.9,199.4-40.3,327.8-162.9,534.8l-78.6,130.4l97.8,205.1c109.2,228.1,155.3,385.3,155.3,529.1c0,251.1-170.6,580.9-435.2,841.6c-176.4,174.5-335.5,251.1-590.4,289.5c-325.9,46-856.9,69-1466.5,65.2c-532.9-5.8-590.4-3.8-655.6,28.8c-40.2,19.2-72.8,42.2-72.8,51.8c0,38.3,130.4,274.1,337.4,605.8c118.9,191.7,239.6,393,266.5,448.6c161,314.4,186,858.8,65.2,1341.9c-122.7,485-389.2,881.8-682.5,1018C6114.8,5021.9,5919.2,5041,5779.3,4995z M6086,4322.1c99.7-107.3,218.5-350.8,270.3-554c51.8-197.5,69-517.6,40.3-688.2c-28.8-161-61.3-230-329.7-659.5c-312.5-502.3-419.8-743.8-419.8-952.8c0-224.3,258.8-486.9,575.1-586.6c116.9-36.4,180.2-40.3,948.9-44.1c776.4-5.7,1138.7-24.9,1315.1-70.9c90.1-23,279.9-222.4,352.8-370c69-141.8,59.4-191.7-84.4-475.4C8559-459,8559-520.3,8752.6-846.2c61.3-105.4,118.9-216.6,124.6-245.4c15.3-69-17.3-132.3-178.3-343.2c-226.2-295.2-239.6-377.7-128.5-703.6c46-138,69-230,61.3-258.8c-7.7-24.9-72.8-128.4-147.6-228.1c-222.4-302.9-239.6-335.5-245.4-498.4c-3.8-93.9,5.7-201.3,30.7-310.6l38.3-168.7l-86.3-78.6c-47.9-44.1-147.6-107.4-222.4-141.9c-289.5-132.3-1305.5-314.4-1938.1-347c-394.9-21.1-820.5,49.8-1660.2,270.3c-513.8,136.1-822.4,195.5-1113.8,214.7l-189.8,11.5v1583.5l1.9,1583.5l80.5,51.8c122.7,76.7,337.4,270.3,440.9,393c199.4,239.6,343.2,523.3,580.9,1152.1c95.8,253,168.7,412.2,232,508c53.7,80.5,258.8,306.7,494.6,550.2c435.2,442.8,523.3,559.8,661.4,878c130.4,302.9,216.6,630.7,287.6,1090.8C5925,4442.9,5951.8,4469.7,6086,4322.1z M2483.9-2126.8v-1782.9h-690.1h-690.1v1782.9v1782.9h690.1h690.1V-2126.8z"/></g></g>
</svg>