<?xml version="1.0" encoding="iso-8859-1"?>
<!-- Generator: Adobe Illustrator 19.0.0, SVG Export Plug-In . SVG Version: 6.00 Build 0)  -->
<svg version="1.1" id="Layer_1" xmlns="http://www.w3.org/2000/svg" xmlns:xlink="http://www.w3.org/1999/xlink" x="0px" y="0px"
	 viewBox="0 0 512 512" style="enable-background:new 0 0 512 512;" xml:space="preserve">
<g>
	<g>
		<path d="M478.609,392.642v-220.12c0-9.223-7.479-16.696-16.696-16.696s-16.696,7.473-16.696,16.696v220.12
			c-19.391,6.914-33.391,25.273-33.391,47.01v55.652c0,9.223,7.479,16.696,16.696,16.696h66.783c9.217,0,16.696-7.473,16.696-16.696
			v-55.652C512,417.916,498,399.556,478.609,392.642z"/>
	</g>
</g>
<g>
	<g>
		<path d="M66.783,392.642v-220.12c0-9.223-7.479-16.696-16.696-16.696s-16.696,7.473-16.696,16.696v220.12
			C14,399.556,0,417.916,0,439.652v55.652C0,504.527,7.479,512,16.696,512h66.783c9.217,0,16.696-7.473,16.696-16.696v-55.652
			C100.174,417.916,86.174,399.556,66.783,392.642z"/>
	</g>
</g>
<g>
	<g>
		<rect x="205.913" y="233.739" width="100.174" height="33.391"/>
	</g>
</g>
<g>
	<g>
		<path d="M289.391,100.174h-66.783c-9.206,0-16.696,7.49-16.696,16.696v16.696h100.174V116.87
			C306.087,107.664,298.597,100.174,289.391,100.174z"/>
	</g>
</g>
<g>
	<g>
		<rect x="205.913" y="166.957" width="100.174" height="33.391"/>
	</g>
</g>
<g>
	<g>
		<path d="M289.391,0h-66.783c-64.445,0-116.87,52.429-116.87,116.87v233.739c0,46.011,37.435,83.456,83.446,83.478
			c48.796,0.014,84.817,0.014,133.631,0c46.01-0.022,83.445-37.467,83.445-83.478V116.87C406.261,52.429,353.836,0,289.391,0z
			 M339.478,350.609c0,9.217-7.467,16.696-16.696,16.696l-50.087,0.012v33.379h-33.391v-33.379l-50.087-0.012
			c-9.228,0-16.696-7.479-16.696-16.696V116.87c0-27.619,22.468-50.087,50.087-50.087h16.696V33.391h33.391v33.391h16.696
			c27.619,0,50.087,22.468,50.087,50.087V350.609z"/>
	</g>
</g>
<g>
	<g>
		<path d="M205.913,300.522v33.397l49.926,0.011c0.056-0.001,0.107-0.017,0.161-0.017s0.106,0.016,0.161,0.017l49.926-0.011v-33.397
			H205.913z"/>
	</g>
</g>
<g>
</g>
<g>
</g>
<g>
</g>
<g>
</g>
<g>
</g>
<g>
</g>
<g>
</g>
<g>
</g>
<g>
</g>
<g>
</g>
<g>
</g>
<g>
</g>
<g>
</g>
<g>
</g>
<g>
</g>
</svg>
